<svg width="97" height="29" viewBox="0 0 97 29" fill="none" xmlns="http://www.w3.org/2000/svg">
<g clip-path="url(#clip0_589_181)">
<path d="M33.856 23.0913C32.9181 23.0913 31.9577 23.0442 30.9528 22.9733C30.0514 22.9107 29.1558 22.7764 28.2734 22.5714L32.0474 5.97972C32.9765 5.78982 33.9163 5.6636 34.8608 5.60183C35.8431 5.53087 36.7365 5.50694 37.5628 5.50694C38.3838 5.48653 39.2032 5.58986 39.9967 5.81385C40.5996 5.97401 41.1681 6.25497 41.6712 6.64149C42.0805 6.96277 42.4101 7.38435 42.6316 7.87007C42.8352 8.33719 42.9418 8.84505 42.9442 9.35945C42.938 9.74033 42.9007 10.1199 42.8328 10.494C42.761 10.912 42.6172 11.3125 42.4087 11.6756C42.1791 12.0949 41.8847 12.4706 41.5379 12.7871C41.102 13.1795 40.6116 13.4984 40.0839 13.7327C40.7233 14.0012 41.2691 14.4717 41.6469 15.0801C41.9772 15.648 42.1476 16.3037 42.1381 16.9705C42.1365 17.7586 41.9846 18.5382 41.6914 19.2627C41.3727 20.0275 40.8838 20.6992 40.2665 21.2206C39.4967 21.8389 38.6263 22.3025 37.6986 22.5885C36.4464 22.9465 35.1528 23.1158 33.856 23.0913ZM33.5207 15.3631L32.5159 19.8304C32.8333 19.8911 33.1541 19.9305 33.4763 19.9484C33.856 19.9723 34.213 19.9954 34.5482 19.9954C35.0193 19.9913 35.4896 19.9519 35.9554 19.8774C36.3891 19.8115 36.8107 19.676 37.2058 19.4756C37.5727 19.2871 37.8878 19.0021 38.121 18.6479C38.3745 18.2515 38.4998 17.7787 38.478 17.3005C38.4787 17.0651 38.433 16.8322 38.344 16.6165C38.2572 16.3807 38.1188 16.17 37.9401 16.0018C37.7199 15.8097 37.4709 15.658 37.2034 15.5529C36.8502 15.4315 36.48 15.3754 36.1088 15.3871H33.5183L33.5207 15.3631ZM34.213 12.4562H36.5127C37.2627 12.5204 38.0092 12.2937 38.613 11.8184C38.8306 11.6338 39.0059 11.3994 39.1258 11.1329C39.2457 10.8664 39.307 10.5746 39.3052 10.2794C39.3135 9.99652 39.2436 9.71719 39.1041 9.47574C38.9659 9.25467 38.7829 9.06891 38.5685 8.93196C38.3357 8.78504 38.0776 8.68855 37.8092 8.64811C37.5217 8.59313 37.2305 8.56141 36.9384 8.55321C36.6032 8.55321 36.2462 8.57715 35.8883 8.60023C35.6037 8.60836 35.3201 8.64009 35.0402 8.69513L34.213 12.4562ZM46.1374 22.8553H42.6542L45.5978 9.83226H49.1035L46.1374 22.8553ZM47.8337 8.24885C47.3599 8.25623 46.897 8.09849 46.5162 7.79997C46.3175 7.63695 46.1604 7.42408 46.059 7.1806C45.9576 6.93712 45.9151 6.67073 45.9354 6.40551C45.9331 6.07075 46.0018 5.7397 46.1366 5.43683C46.268 5.13707 46.4495 4.86483 46.6721 4.63314C46.8977 4.41214 47.1537 4.22877 47.4314 4.08936C47.7272 3.95436 48.0473 3.88985 48.3693 3.90041C48.843 3.89303 49.306 4.05077 49.6867 4.34929C49.8854 4.51231 50.0426 4.72518 50.144 4.96866C50.2454 5.21214 50.2878 5.47853 50.2675 5.74374C50.2699 6.07851 50.2012 6.40956 50.0664 6.71243C49.9349 7.01219 49.7535 7.28444 49.5308 7.51611C49.3053 7.73712 49.0492 7.9205 48.7715 8.05989C48.476 8.19448 48.1561 8.25869 47.8345 8.24799L47.8337 8.24885ZM51.7191 6.59444L55.3589 6.00367L54.4655 9.83226H58.3735L57.6587 12.8572H53.7733L52.7458 17.4185C52.6577 17.767 52.598 18.1228 52.5673 18.4821C52.5422 18.7723 52.5803 19.0648 52.6787 19.3371C52.7904 19.5855 52.9795 19.7857 53.2143 19.9039C53.5379 20.0519 53.89 20.1166 54.2418 20.0929C54.6093 20.0899 54.9758 20.0504 55.3363 19.9749C55.6989 19.8947 56.0569 19.7922 56.4082 19.6679L56.6764 22.4808C56.1729 22.6727 55.6584 22.8306 55.136 22.9536C54.49 23.0967 53.8305 23.1601 53.1707 23.1426C52.3045 23.1866 51.4405 23.0165 50.6472 22.6458C50.0819 22.3527 49.6315 21.8593 49.3741 21.2513C49.1202 20.6171 49.0056 19.9301 49.0389 19.2421C49.0692 18.4281 49.1816 17.6199 49.3741 16.8311L51.7191 6.59444ZM57.5027 17.6553C57.5011 16.5774 57.6749 15.5073 58.0165 14.4919C58.3419 13.5314 58.8426 12.648 59.4899 11.8919C60.1498 11.1457 60.947 10.5504 61.8324 10.1426C62.8064 9.70491 63.8561 9.48765 64.9141 9.50481C65.5526 9.49649 66.1897 9.56795 66.8124 9.71769C67.3372 9.84538 67.8466 10.0355 68.331 10.2845L67.125 13.1444C66.806 13.0016 66.4777 12.883 66.1427 12.7896C65.744 12.6673 65.3298 12.6114 64.9149 12.6238C64.3939 12.5975 63.8741 12.6965 63.3945 12.9135C62.9149 13.1304 62.488 13.4596 62.1458 13.8763C61.4318 14.8442 61.0747 16.0539 61.141 17.28C61.1116 17.9971 61.2909 18.7065 61.6547 19.3122C61.8862 19.5973 62.1806 19.8176 62.5116 19.9536C62.8427 20.0896 63.2004 20.1372 63.553 20.092C63.9956 20.0928 64.4371 20.0452 64.8705 19.9501C65.2625 19.8703 65.6446 19.7436 66.0094 19.5722L66.2776 22.5261C65.8037 22.7186 65.3179 22.8765 64.8236 22.9989C64.1942 23.1525 63.5494 23.224 62.9035 23.2118C62.0582 23.2378 61.2166 23.084 60.4285 22.7595C59.7961 22.4875 59.2254 22.0766 58.754 21.554C58.3073 21.0509 57.9783 20.4438 57.7936 19.7816C57.6033 19.0907 57.5054 18.375 57.5027 17.6553ZM72.1291 23.2127C71.3896 23.2266 70.6544 23.0902 69.9635 22.8108C69.3842 22.5669 68.8649 22.1869 68.4449 21.6994C68.0369 21.2016 67.7259 20.6233 67.5297 19.9979C67.3178 19.2952 67.2123 18.5614 67.217 17.8237C67.2204 16.8108 67.3789 15.8051 67.6864 14.8458C67.9821 13.8748 68.4437 12.9695 69.0483 12.1749C69.6432 11.3756 70.3883 10.7156 71.2365 10.2367C72.1507 9.72398 73.1723 9.46372 74.2067 9.47999C74.9392 9.46568 75.6673 9.60216 76.3506 9.88184C76.9362 10.1255 77.4627 10.5054 77.891 10.9933C78.299 11.4911 78.61 12.0693 78.8062 12.6947C79.0288 13.3948 79.1346 14.1305 79.1188 14.8689C79.1123 15.8797 78.9617 16.8836 78.6721 17.8468C78.392 18.8154 77.9454 19.7209 77.3546 20.5178C76.7649 21.3224 76.0186 21.9834 75.1664 22.456C74.2298 22.973 73.1852 23.232 72.1291 23.2092V23.2127ZM73.8707 12.6246C73.3798 12.6182 72.9007 12.7845 72.5088 13.0974C72.1083 13.4159 71.774 13.818 71.5265 14.279C71.2498 14.7708 71.0466 15.3049 70.9239 15.8624C70.7941 16.3951 70.7265 16.9427 70.7228 17.4929C70.6891 18.1628 70.8199 18.8305 71.1024 19.4311C71.2491 19.6655 71.4535 19.8532 71.6935 19.9737C71.9335 20.0942 72.2 20.1431 72.4644 20.1151C72.9553 20.1215 73.4343 19.9552 73.8263 19.6423C74.221 19.3173 74.5542 18.9164 74.8085 18.4607C75.0852 17.9689 75.2885 17.4348 75.4111 16.8773C75.5409 16.3445 75.6085 15.797 75.6123 15.2468C75.6459 14.5769 75.5151 13.9092 75.2326 13.3086C75.0917 13.0677 74.8883 12.8748 74.6467 12.753C74.4051 12.6311 74.1354 12.5853 73.8699 12.6212L73.8707 12.6246ZM82.5567 22.8587H79.0736L82.0211 9.83568H85.5269L82.5567 22.8587ZM84.2312 8.25227C83.7574 8.25965 83.2945 8.10191 82.9137 7.80338C82.715 7.64037 82.5579 7.4275 82.4565 7.18402C82.3551 6.94054 82.3126 6.67415 82.3329 6.40893C82.3306 6.07416 82.3993 5.74312 82.5341 5.44024C82.6656 5.14049 82.847 4.86825 83.0696 4.63656C83.2894 4.40792 83.5467 4.22363 83.8289 4.09278C84.1247 3.95778 84.4449 3.89329 84.7668 3.90385C85.2406 3.89647 85.7035 4.05419 86.0843 4.35271C86.283 4.51573 86.4401 4.7286 86.5415 4.97208C86.6429 5.21556 86.6854 5.48195 86.665 5.74716C86.6674 6.08193 86.5987 6.41298 86.4639 6.71585C86.3324 7.01561 86.151 7.28786 85.9283 7.51953C85.7028 7.74053 85.4467 7.9239 85.169 8.06331C84.8732 8.19672 84.5534 8.25977 84.232 8.24799L84.2312 8.25227ZM87.5811 10.4504C87.8492 10.3794 88.1392 10.2615 88.4744 10.1665C88.8264 10.0443 89.1842 9.94186 89.5464 9.85961C89.9883 9.75859 90.4359 9.68749 90.8865 9.64672C91.3776 9.5997 91.9366 9.55183 92.561 9.55183C94.414 9.55183 95.6871 10.1187 96.3793 11.2302C97.0716 12.3416 97.1871 13.8806 96.7364 15.8385L95.1289 22.8578H91.6232L93.1862 15.9804C93.2759 15.5529 93.3647 15.1254 93.4092 14.7279C93.4587 14.3745 93.451 14.0149 93.3865 13.6643C93.3316 13.3686 93.1717 13.1064 92.9398 12.9316C92.6288 12.7173 92.2597 12.6175 91.8897 12.6477C91.425 12.6492 90.9615 12.6967 90.5052 12.7896L88.2273 22.8578H84.7215L87.5811 10.4504Z" fill="#808080"/>
<path d="M20.6452 11.6585C21.0758 8.61133 18.8843 6.97319 15.8866 5.88053L16.856 1.75269L14.4819 1.12686L13.5352 5.14524C12.9108 4.98108 12.2702 4.82549 11.6329 4.67159L12.5861 0.625839L10.2136 0L9.24431 4.12611C8.72814 4.00129 8.22086 3.87816 7.72811 3.74906V3.73625L4.4542 2.87102L3.82252 5.55477C3.82252 5.55477 5.58347 5.98227 5.54631 6.00877C5.87465 6.05066 6.17437 6.22715 6.38113 6.50034C6.58789 6.77353 6.68519 7.12166 6.65216 7.46994L5.5447 12.1723C5.62878 12.195 5.71135 12.2236 5.79188 12.2578L5.54066 12.192L3.98812 18.7753C3.95412 18.8904 3.89894 18.9973 3.82576 19.0898C3.75258 19.1823 3.66284 19.2585 3.56171 19.3141C3.46059 19.3698 3.35006 19.4037 3.23651 19.4139C3.12295 19.4241 3.0086 19.4105 2.90004 19.3738C2.92347 19.4105 1.17464 18.9181 1.17464 18.9181L-0.00390625 21.7942L3.08502 22.609C3.65935 22.7612 4.22318 22.9211 4.78135 23.0716L3.7991 27.2464L6.16992 27.8723L7.13924 23.7419C7.78546 23.9283 8.41553 24.1001 9.03105 24.2617L8.06172 28.3733L10.4358 28.9991L11.418 24.832C15.4658 25.6425 18.5103 25.3159 19.7914 21.4403C20.8238 18.3205 19.7397 16.5199 17.6104 15.3468C18.43 15.1729 19.1722 14.7167 19.7211 14.0496C20.2701 13.3824 20.595 12.5416 20.6452 11.6585ZM15.221 19.709C14.4876 22.8296 9.5238 21.1427 7.91471 20.7195L9.21846 15.1887C10.8292 15.6127 15.9892 16.4549 15.2226 19.7081L15.221 19.709ZM15.9553 11.614C15.2857 14.4525 11.1547 13.0102 9.81621 12.6571L10.998 7.64006C12.3381 7.99317 16.654 8.65236 15.9601 11.6131L15.9553 11.614Z" fill="#808080"/>
</g>
<defs>
<clipPath id="clip0_589_181">
<rect width="97" height="29" fill="white"/>
</clipPath>
</defs>
</svg>
