<svg width="99" height="29" viewBox="0 0 99 29" fill="none" xmlns="http://www.w3.org/2000/svg">
<g clip-path="url(#clip0_589_117)">
<path fill-rule="evenodd" clip-rule="evenodd" d="M10.1523 15.3101H17.0802V13.4634H10.1523V15.3101Z" fill="#808080"/>
<path fill-rule="evenodd" clip-rule="evenodd" d="M18.5893 20.2493H17.012V16.6721H10.0841V20.2493H8.52193V8.64126H10.1001V12.1347H17.028V8.64126H18.6061V20.2407H18.5901L18.5893 20.2493ZM13.5552 1.00984e-07C10.875 1.00984e-07 8.25503 0.850373 6.02653 2.44361C3.79803 4.03684 2.06111 6.30136 1.03544 8.95081C0.00977353 11.6003 -0.258582 14.5156 0.264299 17.3283C0.787179 20.1409 2.07782 22.7245 3.973 24.7523C5.86819 26.7801 8.2828 28.1611 10.9115 28.7205C13.5402 29.28 16.2649 28.9929 18.7411 27.8954C21.2173 26.798 23.3337 24.9395 24.8227 22.5551C26.3118 20.1707 27.1066 17.3673 27.1066 14.4996C27.1059 10.6535 25.6774 6.96523 23.1354 4.24606C20.5933 1.52689 17.1458 -0.00045345 13.5512 1.00984e-07H13.5552Z" fill="#808080"/>
<path fill-rule="evenodd" clip-rule="evenodd" d="M47.8257 13.5633H40.6789V8.03931H38.8594V21.0093H40.6797V15.3853H47.8265V21.0093H49.6467V8.03931H47.8265L47.8257 13.5633Z" fill="#808080"/>
<path fill-rule="evenodd" clip-rule="evenodd" d="M55.9081 11.7167C55.3298 11.7124 54.7566 11.8332 54.2231 12.0719C53.6895 12.3105 53.2065 12.662 52.803 13.1054C52.3996 13.5487 52.084 14.0747 51.8753 14.6517C51.6665 15.2288 51.569 15.8451 51.5884 16.4635C51.5748 17.093 51.6811 17.7189 51.9007 18.3031C52.1204 18.8873 52.4489 19.4175 52.8661 19.8615C53.2834 20.3056 53.7807 20.6541 54.3278 20.886C54.875 21.1179 55.4605 21.2283 56.0488 21.2103C58.9701 21.2103 59.9929 19.1131 60.1336 18.3889L60.1567 18.2632H58.4787L58.4555 18.3137C58.2003 18.7293 57.843 19.0616 57.4227 19.274C57.0025 19.4864 56.5356 19.5707 56.0735 19.5175C55.373 19.5298 54.6957 19.2496 54.1853 18.7362C53.6749 18.2228 53.3716 17.5167 53.3399 16.7679H60.2526V16.6679C60.2526 13.7678 58.4563 11.7201 55.9097 11.7201M55.9097 13.3164C56.4531 13.2902 56.9884 13.4643 57.4263 13.8096C57.8642 14.1549 58.1781 14.6504 58.3157 15.2135H53.4574C53.6 14.6438 53.9217 14.1441 54.3684 13.7986C54.8151 13.453 55.3594 13.2827 55.9097 13.3164Z" fill="#808080"/>
<path fill-rule="evenodd" clip-rule="evenodd" d="M68.7015 13.1623C68.3534 12.6883 67.9048 12.3098 67.3927 12.0584C66.8806 11.8069 66.3198 11.6898 65.7569 11.7166C63.2798 11.7166 61.5547 13.6642 61.5547 16.4634C61.5547 19.2626 63.2806 21.2103 65.7569 21.2103C66.3258 21.2282 66.8904 21.0993 67.4029 20.8346C67.9154 20.5698 68.3608 20.177 68.7015 19.6893V20.9931H70.4043V7.56311H68.7015V13.1623ZM66.0646 19.514C65.4936 19.5503 64.9255 19.4023 64.434 19.0891C63.9425 18.7759 63.5502 18.312 63.308 17.7575C63.0658 17.203 62.9848 16.5835 63.0755 15.9792C63.1662 15.3748 63.4244 14.8136 63.8167 14.3682C64.209 13.9227 64.7173 13.6135 65.2757 13.4807C65.8341 13.3479 66.417 13.3977 66.9487 13.6235C67.4804 13.8493 67.9365 14.2407 68.2578 14.7471C68.5792 15.2534 68.751 15.8514 68.751 16.4634C68.7782 16.8566 68.7287 17.2515 68.6055 17.6231C68.4823 17.9946 68.2882 18.3346 68.0355 18.6215C67.7828 18.9085 67.4771 19.136 67.1378 19.2897C66.7985 19.4433 66.433 19.5197 66.0646 19.514Z" fill="#808080"/>
<path fill-rule="evenodd" clip-rule="evenodd" d="M76.7628 11.7167C76.1845 11.7125 75.6115 11.8334 75.078 12.0721C74.5446 12.3108 74.0616 12.6624 73.6582 13.1057C73.2549 13.549 72.9394 14.0749 72.7307 14.6519C72.522 15.229 72.4244 15.8451 72.4438 16.4635C72.4303 17.0929 72.5365 17.7188 72.7561 18.3029C72.9758 18.887 73.3042 19.4172 73.7213 19.8612C74.1385 20.3053 74.6357 20.6538 75.1827 20.8858C75.7298 21.1177 76.3152 21.2281 76.9034 21.2103C79.8248 21.2103 80.8476 19.1131 80.9882 18.3889L81.0114 18.2632H79.3334L79.3102 18.3137C79.055 18.7293 78.6977 19.0616 78.2774 19.274C77.8572 19.4864 77.3903 19.5707 76.9282 19.5175C76.2278 19.5298 75.5504 19.2495 75.04 18.7361C74.5296 18.2227 74.2263 17.5167 74.1946 16.7679H81.1073V16.6678C81.0841 13.7678 79.311 11.7201 76.7643 11.7201M76.7643 13.3163C77.3077 13.2902 77.8431 13.4643 78.281 13.8096C78.7189 14.1549 79.0328 14.6504 79.1703 15.2135H74.312C74.4501 14.6411 74.7707 14.1382 75.2185 13.7918C75.6663 13.4454 76.213 13.2773 76.7643 13.3163Z" fill="#808080"/>
<path fill-rule="evenodd" clip-rule="evenodd" d="M84.7303 13.2351V11.915H83.0195V21.0077H84.7223V15.8855C84.7223 14.2893 85.4958 13.6874 87.503 13.6874H89.7212V11.8671H87.5503C87.0092 11.809 86.4634 11.9049 85.9682 12.1451C85.473 12.3853 85.0459 12.7614 84.7303 13.2351Z" fill="#808080"/>
<path fill-rule="evenodd" clip-rule="evenodd" d="M97.2982 13.1624C96.9698 12.6903 96.5381 12.3116 96.041 12.0595C95.5439 11.8075 94.9967 11.6897 94.4472 11.7167C93.8784 11.7165 93.3157 11.8418 92.7941 12.0846C92.2725 12.3273 91.8032 12.6825 91.4156 13.1278C91.0279 13.5732 90.7301 14.0992 90.5408 14.6731C90.3515 15.247 90.2747 15.8564 90.3152 16.4635C90.3152 19.2636 92.018 21.2103 94.4472 21.2103C95.0007 21.2304 95.5502 21.1044 96.0474 20.8435C96.5447 20.5825 96.9742 20.1947 97.2982 19.7141V21.018H99.001V11.9176H97.2982V13.1624ZM97.3454 16.4635C97.3036 17.0115 97.1131 17.5346 96.7972 17.9683C96.4813 18.402 96.0539 18.7275 95.5674 18.9048C95.081 19.0821 94.5567 19.1035 94.0591 18.9663C93.5615 18.8291 93.1122 18.5392 92.7664 18.1324C92.4207 17.7257 92.1935 17.2196 92.1129 16.6766C92.0323 16.1335 92.1018 15.5771 92.3128 15.0757C92.5237 14.5744 92.867 14.1499 93.3005 13.8545C93.7339 13.5591 94.2386 13.4056 94.7524 13.4129C95.1134 13.4195 95.4693 13.505 95.7982 13.6642C96.1271 13.8234 96.4221 14.0529 96.665 14.3387C96.9079 14.6245 97.0935 14.9604 97.2105 15.3258C97.3276 15.6912 97.3735 16.0784 97.3454 16.4635Z" fill="#808080"/>
</g>
<defs>
<clipPath id="clip0_589_117">
<rect width="99" height="29" fill="white"/>
</clipPath>
</defs>
</svg>
