<svg width="121" height="35" viewBox="0 0 121 35" fill="none" xmlns="http://www.w3.org/2000/svg">
<g clip-path="url(#clip0_589_171)">
<path d="M36.248 20.4016H29.1875C29.2135 21.5149 29.513 22.3743 30.0859 22.9797C30.6589 23.5852 31.4466 23.8879 32.4492 23.8879C33.5755 23.8879 34.6107 23.5168 35.5547 22.7747V24.2786C34.6758 24.9166 33.5137 25.2356 32.0684 25.2356C30.6556 25.2356 29.5456 24.7831 28.7383 23.8782C27.931 22.9667 27.5273 21.6874 27.5273 20.0403C27.5273 18.4843 27.9668 17.218 28.8457 16.2415C29.7311 15.2584 30.8281 14.7668 32.1367 14.7668C33.4453 14.7668 34.4577 15.19 35.1738 16.0364C35.89 16.8827 36.248 18.0579 36.248 19.5618V20.4016ZM34.6074 19.0442C34.6009 18.1197 34.3763 17.4003 33.9336 16.886C33.4974 16.3717 32.8887 16.1145 32.1074 16.1145C31.3522 16.1145 30.7109 16.3847 30.1836 16.925C29.6562 17.4654 29.3307 18.1718 29.207 19.0442H34.6074ZM43.3184 24.9036C42.9408 25.1119 42.4427 25.2161 41.8242 25.2161C40.0729 25.2161 39.1973 24.2395 39.1973 22.2864V16.3684H37.4785V15.0012H39.1973V12.5598L40.7988 12.0422V15.0012H43.3184V16.3684H40.7988V22.0032C40.7988 22.6737 40.9128 23.1523 41.1406 23.4387C41.3685 23.7252 41.7461 23.8684 42.2734 23.8684C42.6771 23.8684 43.0254 23.7577 43.3184 23.5364V24.9036ZM53.7578 25.0012H52.1562V19.2395C52.1562 17.1562 51.3815 16.1145 49.832 16.1145C49.0508 16.1145 48.3932 16.4172 47.8594 17.0227C47.3255 17.6217 47.0586 18.3931 47.0586 19.3372V25.0012H45.457V10.1965H47.0586V16.6614H47.0977C47.8659 15.3984 48.9596 14.7668 50.3789 14.7668C52.6315 14.7668 53.7578 16.1243 53.7578 18.8391V25.0012ZM64.8223 20.4016H57.7617C57.7878 21.5149 58.0872 22.3743 58.6602 22.9797C59.2331 23.5852 60.0208 23.8879 61.0234 23.8879C62.1497 23.8879 63.1849 23.5168 64.1289 22.7747V24.2786C63.25 24.9166 62.0879 25.2356 60.6426 25.2356C59.2298 25.2356 58.1198 24.7831 57.3125 23.8782C56.5052 22.9667 56.1016 21.6874 56.1016 20.0403C56.1016 18.4843 56.541 17.218 57.4199 16.2415C58.3053 15.2584 59.4023 14.7668 60.7109 14.7668C62.0195 14.7668 63.0319 15.19 63.748 16.0364C64.4642 16.8827 64.8223 18.0579 64.8223 19.5618V20.4016ZM63.1816 19.0442C63.1751 18.1197 62.9505 17.4003 62.5078 16.886C62.0716 16.3717 61.4629 16.1145 60.6816 16.1145C59.9264 16.1145 59.2852 16.3847 58.7578 16.925C58.2305 17.4654 57.9049 18.1718 57.7812 19.0442H63.1816ZM72.4688 16.6223C72.1888 16.4075 71.7852 16.3 71.2578 16.3C70.5742 16.3 70.0013 16.6223 69.5391 17.2668C69.0833 17.9114 68.8555 18.7903 68.8555 19.9036V25.0012H67.2539V15.0012H68.8555V17.0618H68.8945C69.1224 16.3586 69.4707 15.8118 69.9395 15.4211C70.4082 15.024 70.9323 14.8254 71.5117 14.8254C71.9284 14.8254 72.2474 14.871 72.4688 14.9622V16.6223ZM82.2441 20.4016H75.1836C75.2096 21.5149 75.5091 22.3743 76.082 22.9797C76.6549 23.5852 77.4427 23.8879 78.4453 23.8879C79.5716 23.8879 80.6068 23.5168 81.5508 22.7747V24.2786C80.6719 24.9166 79.5098 25.2356 78.0645 25.2356C76.6517 25.2356 75.5417 24.7831 74.7344 23.8782C73.9271 22.9667 73.5234 21.6874 73.5234 20.0403C73.5234 18.4843 73.9629 17.218 74.8418 16.2415C75.7272 15.2584 76.8242 14.7668 78.1328 14.7668C79.4414 14.7668 80.4538 15.19 81.1699 16.0364C81.8861 16.8827 82.2441 18.0579 82.2441 19.5618V20.4016ZM80.6035 19.0442C80.597 18.1197 80.3724 17.4003 79.9297 16.886C79.4935 16.3717 78.8848 16.1145 78.1035 16.1145C77.3483 16.1145 76.707 16.3847 76.1797 16.925C75.6523 17.4654 75.3268 18.1718 75.2031 19.0442H80.6035ZM92.7617 25.0012H91.1602V23.4192H91.1211C90.457 24.6301 89.4284 25.2356 88.0352 25.2356C85.6523 25.2356 84.4609 23.8163 84.4609 20.9778V15.0012H86.0527V20.7239C86.0527 22.8333 86.86 23.8879 88.4746 23.8879C89.2559 23.8879 89.8971 23.6015 90.3984 23.0286C90.9062 22.4491 91.1602 21.6939 91.1602 20.7629V15.0012H92.7617V25.0012ZM110.203 25.0012H108.602V19.259C108.602 18.1523 108.429 17.3515 108.084 16.8567C107.745 16.3619 107.173 16.1145 106.365 16.1145C105.682 16.1145 105.099 16.427 104.617 17.052C104.142 17.677 103.904 18.4257 103.904 19.2981V25.0012H102.303V19.0637C102.303 17.0976 101.544 16.1145 100.027 16.1145C99.3242 16.1145 98.7448 16.4107 98.2891 17.0032C97.8333 17.5891 97.6055 18.3541 97.6055 19.2981V25.0012H96.0039V15.0012H97.6055V16.5833H97.6445C98.3542 15.3723 99.3893 14.7668 100.75 14.7668C101.434 14.7668 102.029 14.9589 102.537 15.343C103.045 15.7206 103.393 16.2187 103.582 16.8372C104.324 15.4569 105.431 14.7668 106.902 14.7668C109.103 14.7668 110.203 16.1243 110.203 18.8391V25.0012Z" fill="#808080"/>
<path d="M12.0507 0L0 17.8264L12.0507 12.9444V0Z" fill="#808080"/>
<path d="M12.0507 12.9427L0 17.8248L12.0507 24.1758V12.9427Z" fill="#808080"/>
<path d="M24.1041 17.8264L12.0508 0V12.9428L24.1041 17.8264Z" fill="#808080"/>
<path d="M12.0508 24.1758L24.1041 17.8248L12.0508 12.9427V24.1758Z" fill="#808080"/>
<path d="M0 19.8625L12.0507 35V26.2057L0 19.8625Z" fill="#808080"/>
<path d="M12.0508 26.2097V35.004L24.1104 19.8666L12.0508 26.2097Z" fill="#808080"/>
</g>
<defs>
<clipPath id="clip0_589_171">
<rect width="121" height="35" fill="white"/>
</clipPath>
</defs>
</svg>
