<svg width="98" height="27" viewBox="0 0 98 27" fill="none" xmlns="http://www.w3.org/2000/svg">
<g clip-path="url(#clip0_589_129)">
<path d="M27.3438 3.25558H31.8505C32.3053 3.22152 32.7622 3.27939 33.1948 3.42587C33.6275 3.57235 34.0272 3.80452 34.3709 4.10894C34.6141 4.31874 34.8086 4.58052 34.9406 4.87556C35.0726 5.17061 35.1388 5.49162 35.1345 5.81567C35.1469 6.07664 35.1212 6.33803 35.058 6.5913C34.9025 6.99652 34.6685 7.36598 34.3701 7.67785C34.2362 7.80741 34.0811 7.91234 33.9118 7.98794C34.4343 8.14845 34.9077 8.44224 35.2868 8.8413C35.619 9.28643 35.7818 9.83849 35.7451 10.3958C35.7503 10.7958 35.6721 11.1923 35.5155 11.5593C35.3249 11.8966 35.0643 12.1878 34.7519 12.4127C34.3854 12.6253 34.0023 12.807 33.6065 12.9559C33.1074 13.0884 32.5911 13.1409 32.076 13.1114H27.4171V3.25558H27.3438ZM31.4687 7.29003C31.8616 7.28784 32.2505 7.20895 32.6141 7.05767C32.7544 6.98501 32.8718 6.87377 32.9528 6.73662C33.0338 6.59948 33.0753 6.44196 33.0724 6.28204C33.0736 6.13132 33.0396 5.98247 32.9732 5.84765C32.9069 5.71284 32.81 5.5959 32.6906 5.5064C32.5389 5.39261 32.365 5.31301 32.1805 5.27294C31.996 5.23287 31.8053 5.23322 31.6209 5.27402H29.4823V7.36859H31.4679L31.4687 7.29003ZM32.0036 11.2468C32.3965 11.2446 32.7854 11.1657 33.149 11.0144C33.3003 10.9393 33.4212 10.8131 33.4908 10.6574C33.5605 10.5017 33.5746 10.3262 33.5308 10.161C33.5319 10.0103 33.4979 9.86146 33.4316 9.72665C33.3652 9.59184 33.2684 9.4749 33.149 9.3854C32.7767 9.17182 32.3544 9.06466 31.927 9.07531H29.4066V11.2476L32.0036 11.2468Z" fill="#808080"/>
<path d="M38.4219 3.25476H40.5605V13.1859H38.4219V3.25476Z" fill="#808080"/>
<path d="M43.8438 3.25476H45.8301L50.4134 9.38376V3.25476H52.552V13.1859H50.7186L45.9066 6.9014V13.1859H43.8445L43.8438 3.25476Z" fill="#808080"/>
<path d="M59.0452 3.18103H61.0316L65.2323 13.1898H63.0172L62.1005 10.9398H57.9755L57.0589 13.1898H54.8438L59.0452 3.18103ZM61.3368 9.07767L60.0384 5.81885L58.7399 9.07767H61.3368Z" fill="#808080"/>
<path d="M67.5234 3.25476H69.5098L74.0931 9.38376V3.25476H76.2316V13.1859H74.3983L69.6628 6.9014V13.1859H67.5242L67.5234 3.25476Z" fill="#808080"/>
<path d="M84.0221 13.3445C83.3426 13.3357 82.67 13.2044 82.0357 12.9567C80.834 12.4343 79.8766 11.4618 79.3623 10.2412C79.1184 9.59689 78.9891 8.91373 78.9805 8.22353C78.9999 6.867 79.5169 5.56664 80.4304 4.57689C80.8824 4.1025 81.4293 3.732 82.0341 3.49034C82.6862 3.21249 83.3894 3.08023 84.0962 3.10252C84.505 3.08974 84.9141 3.11576 85.3182 3.18025C85.6617 3.23676 85.9959 3.3411 86.3113 3.49034C86.5999 3.62908 86.8804 3.78452 87.1515 3.95589C87.4241 4.13881 87.6797 4.34667 87.9151 4.57689L86.6166 6.20589C86.2534 5.8965 85.8708 5.61145 85.4712 5.35252C85.0738 5.13217 84.6252 5.02503 84.1727 5.04244C83.7798 5.04461 83.3909 5.1235 83.0273 5.2748C82.6635 5.41588 82.346 5.65765 82.1106 5.9727C81.8629 6.27939 81.6573 6.61875 81.4993 6.98152C81.35 7.3508 81.2721 7.74579 81.2697 8.14497C81.2719 8.56938 81.3497 8.98988 81.4993 9.38616C81.6281 9.76373 81.8368 10.1081 82.1106 10.395C82.369 10.6906 82.6867 10.9267 83.0424 11.0873C83.3981 11.2479 83.7835 11.3293 84.1727 11.3261C84.6729 11.3353 85.1686 11.2293 85.6226 11.016C86.0348 10.7761 86.419 10.4899 86.768 10.1626L88.143 11.5593L87.3794 12.3349C87.0912 12.5446 86.7843 12.7265 86.4627 12.8782C86.1241 13.0536 85.7645 13.1839 85.393 13.266C84.9372 13.3265 84.4777 13.3524 84.0181 13.3437L84.0221 13.3445Z" fill="#808080"/>
<path d="M90.5898 3.25476H97.9198V5.19467H92.6495V7.21231H97.3149V9.15222H92.6559V11.2468H98.0028V13.1867H90.5923L90.5898 3.25476Z" fill="#808080"/>
<path d="M30.0968 22.9655C29.57 22.9833 29.0462 22.8772 28.5664 22.6554C28.0608 22.4583 27.5948 22.1691 27.1914 21.802L27.955 20.9487C28.2544 21.2246 28.5884 21.4593 28.9482 21.6466C29.3118 21.7979 29.7007 21.8768 30.0936 21.8789C30.4129 21.8756 30.7269 21.796 31.0103 21.6466C31.1095 21.5785 31.1897 21.4856 31.2432 21.3768C31.2967 21.268 31.3216 21.147 31.3155 21.0256C31.3268 20.9163 31.2997 20.8065 31.239 20.7155C31.1625 20.6378 31.086 20.4823 31.0103 20.4054L30.5519 20.173C30.3232 20.0953 30.0171 20.0176 29.7883 19.9407C29.4475 19.873 29.1146 19.769 28.7951 19.6306C28.5432 19.5487 28.3096 19.4169 28.1081 19.2428C27.9368 19.0787 27.7831 18.8966 27.6497 18.6995C27.5317 18.4317 27.4792 18.139 27.4967 17.8461C27.5105 17.5561 27.562 17.2691 27.6497 16.9928C27.758 16.7555 27.9142 16.5439 28.1081 16.3718C28.3376 16.197 28.5963 16.0656 28.8717 15.9839C29.1699 15.8946 29.4777 15.8424 29.7883 15.8285C30.256 15.8299 30.7204 15.9084 31.1633 16.0609C31.5604 16.2373 31.9434 16.4449 32.3087 16.6819L31.6982 17.6129C31.4099 17.4033 31.103 17.2214 30.7815 17.0697C30.4929 16.9431 30.1783 16.8898 29.8649 16.9142C29.5686 16.908 29.2769 16.9886 29.0247 17.1466C28.8501 17.3075 28.7412 17.5291 28.7194 17.7676C28.7076 17.9016 28.7342 18.0363 28.7959 18.1554C28.8725 18.2331 28.949 18.3886 29.0247 18.4655C29.1968 18.557 29.3756 18.6346 29.5595 18.6978C29.8339 18.7952 30.1146 18.8729 30.3997 18.9302C30.7378 19.0088 31.0697 19.1125 31.3929 19.2403C31.6372 19.3394 31.8681 19.4697 32.08 19.6281C32.2319 19.7899 32.3605 19.9729 32.4618 20.1714C32.5566 20.419 32.6084 20.6814 32.6148 20.947C32.6079 21.2378 32.5563 21.5258 32.4618 21.8004C32.3077 22.0512 32.1285 22.2851 31.9269 22.4983C31.6974 22.6731 31.4387 22.8045 31.1633 22.8861C30.7839 22.8878 30.4021 22.9655 30.0968 22.9655Z" fill="#808080"/>
<path d="M33.9141 15.9054H35.2125L37.2746 19.1642L39.4132 15.9054H40.7116V22.8878H39.4897V17.8445L37.3511 21.1033H37.2746L35.136 17.8445V22.8878H33.9141V15.9054Z" fill="#808080"/>
<path d="M44.835 15.8278H45.9804L48.9608 22.8101H47.6623L46.9752 21.1034H43.7645L43.0774 22.8101H41.8555L44.835 15.8278ZM46.5918 20.0954L45.3698 17.3021L44.2244 20.0954H46.5918Z" fill="#808080"/>
<path d="M50.186 15.9054H53.2413C53.6272 15.919 54.0108 15.9711 54.3867 16.0609C54.7078 16.1661 54.997 16.3531 55.2268 16.6041C55.4144 16.8111 55.5691 17.0466 55.6851 17.302C55.7797 17.5766 55.8313 17.8646 55.8382 18.1554C55.8242 18.4201 55.7726 18.6813 55.6851 18.931C55.6086 19.1642 55.4564 19.3189 55.3798 19.552C55.2182 19.726 55.039 19.882 54.845 20.0176C54.631 20.1529 54.3995 20.2573 54.1571 20.3277L55.9904 22.9655H54.5405L52.8603 20.56H51.3298V22.9655H50.1055L50.186 15.9054ZM53.1663 19.3188C53.5242 19.3479 53.8795 19.237 54.1595 19.0088C54.3913 18.7857 54.5283 18.4795 54.5413 18.1554C54.5283 17.8313 54.3913 17.5251 54.1595 17.302C53.8457 17.0837 53.4706 16.9748 53.0906 16.9919H51.3338V19.3197L53.1663 19.3188Z" fill="#808080"/>
<path d="M58.969 16.9911H56.7539V15.9054H62.3296V16.9919H60.1144V22.8886H58.8884L58.969 16.9911Z" fill="#808080"/>
<path d="M69.7387 22.9655C69.2626 22.9746 68.7913 22.8683 68.3637 22.6554C67.9508 22.4857 67.5758 22.2334 67.2609 21.9134C66.9459 21.5935 66.6975 21.2126 66.5304 20.7932C66.3438 20.3534 66.2653 19.8741 66.3016 19.3966C66.3031 18.9216 66.3804 18.4499 66.5304 18C66.6954 17.57 66.9422 17.1774 67.2568 16.8445C67.5714 16.5116 67.9475 16.2451 68.3637 16.0601C68.8266 15.8754 69.3167 15.7706 69.8136 15.75C70.0959 15.7336 70.379 15.7598 70.6537 15.8277L71.3416 16.0601C71.5712 16.1378 71.7235 16.2924 71.953 16.3701C72.1061 16.5256 72.3348 16.6802 72.4879 16.8357L71.7243 17.7668C71.4773 17.5172 71.1939 17.3078 70.8841 17.1458C70.5495 16.9871 70.1837 16.9077 69.8144 16.9134C69.5038 16.9273 69.196 16.9795 68.8978 17.0689C68.6146 17.2044 68.3563 17.3882 68.1342 17.6122C67.9115 17.8209 67.7525 18.09 67.6759 18.3878C67.5878 18.6907 67.5364 19.0034 67.5228 19.3189C67.5365 19.6344 67.5878 19.9471 67.6759 20.25C67.7525 20.5477 67.9116 20.8169 68.1342 21.0256C68.3564 21.2495 68.6146 21.4333 68.8978 21.5689C69.1745 21.7323 69.5004 21.7876 69.8144 21.7243C70.1837 21.7301 70.5495 21.6506 70.8841 21.492C71.2245 21.3106 71.5339 21.075 71.8008 20.7941L72.5644 21.5697L72.0295 22.113C71.8439 22.2697 71.6383 22.4001 71.4182 22.5008C71.1794 22.624 70.9207 22.7027 70.6546 22.7332C70.3856 22.918 70.0617 23.0003 69.7387 22.9655Z" fill="#808080"/>
<path d="M73.7852 15.9054H74.9306V18.7764H78.2154V15.9054H79.4374V22.8878H78.2154V19.9423H74.9306V22.8878H73.7852V15.9054Z" fill="#808080"/>
<path d="M83.6389 15.8278H84.7851L87.7654 22.8101H86.467L85.7791 21.1034H82.57L81.8821 22.8101H80.6602L83.6389 15.8278ZM85.3191 20.0954L84.1737 17.3021L83.0283 20.0954H85.3191Z" fill="#808080"/>
<path d="M88.9883 15.9054H90.2102V22.8878H88.9883V15.9054Z" fill="#808080"/>
<path d="M92.043 15.9054H93.1127L96.7793 20.7155V15.9054H98.0013V22.8878H97.0105L93.2673 17.9222V22.8878H92.0454L92.043 15.9054Z" fill="#808080"/>
<path d="M13.9021 22.4222V25.4495L11.3052 27.004L8.78476 25.4495V22.4222L11.3052 23.9767L13.9021 22.4222ZM0 11.9495L2.5204 13.504V18.7019L6.87411 21.3397V24.367L0 20.2548V11.9495ZM22.6095 11.9495V20.2499L15.6589 24.3621V21.3348L20.0126 18.697V13.4999L22.6095 11.9495ZM15.6589 7.83728L18.2558 9.39182V12.4191L13.9021 15.0569V20.3235L11.3817 21.8781L8.86128 20.3235V15.0479L4.35452 12.4101V9.38283L6.95144 7.82827L11.3052 10.4661L15.6589 7.83728ZM4.35452 14.5873L6.87492 16.1418V19.1691L4.35452 17.6145V14.5873ZM18.2566 14.5873V17.6145L15.7362 19.1691V16.1418L18.2566 14.5873ZM2.52201 5.19946L5.11893 6.754L2.52201 8.30854V11.3358L0.00161011 9.78129V6.754L2.52201 5.19946ZM20.0899 5.19946L22.6868 6.754V9.78129L20.0899 11.3358V8.30854L17.5695 6.754L20.0899 5.19946ZM11.306 5.19946L13.9029 6.754L11.306 8.30854L8.78556 6.754L11.306 5.19946ZM11.306 0.000732422L18.2566 4.11292L15.7362 5.66746L11.3825 3.02964L6.95224 5.66746L4.43184 4.11292L11.306 0.000732422Z" fill="#808080"/>
</g>
<defs>
<clipPath id="clip0_589_129">
<rect width="98" height="27" fill="white"/>
</clipPath>
</defs>
</svg>
