<svg width="106" height="21" viewBox="0 0 106 21" fill="none" xmlns="http://www.w3.org/2000/svg">
<g clip-path="url(#clip0_589_105)">
<path d="M28.6739 6.83862H29.8255L33.0511 14.1575H31.5274L30.8302 12.4823H27.5846L26.9074 14.1575H25.418L28.6739 6.83862ZM30.3662 11.3686L29.2146 8.39208L28.0398 11.3686H30.3662Z" fill="#808080"/>
<path d="M34.4766 6.83862H36.0099L38.0511 12.3698L40.1555 6.83862H41.593L38.5695 14.1575H37.4178L34.4766 6.83862Z" fill="#808080"/>
<path d="M46.3568 6.83862H47.5085L50.7317 14.1575H49.2079L48.5107 12.4823H45.2651L44.5879 14.1575H43.0977L46.3568 6.83862ZM48.0459 11.3686L46.8943 8.39208L45.7196 11.3686H48.0459Z" fill="#808080"/>
<path d="M53.6758 6.83862H55.0071V12.9798H58.1895V14.1584H53.6758V6.83862Z" fill="#808080"/>
<path d="M63.6967 6.83862H64.8483L68.0746 14.1575H66.5509L65.8538 12.4823H62.6041L61.9269 14.1575H60.4375L63.6967 6.83862ZM65.3857 11.3686L64.2341 8.39208L63.0594 11.3686H65.3857Z" fill="#808080"/>
<path d="M71.0195 6.83862H72.7852L76.4125 12.2784H76.4326V6.83862H77.7639V14.1575H76.0707L72.3699 8.54205H72.35V14.1575H71.0195V6.83862Z" fill="#808080"/>
<path d="M86.6872 8.55613C86.4687 8.3054 86.1936 8.10759 85.8837 7.97819C85.6389 7.88238 85.3777 7.83281 85.114 7.83213C84.7499 7.82681 84.3889 7.89763 84.0551 8.03987C83.7498 8.16816 83.4759 8.35849 83.2516 8.59827C83.0221 8.83794 82.8429 9.11922 82.7238 9.4262C82.6024 9.75388 82.5415 10.1 82.544 10.4485C82.54 10.8173 82.6008 11.184 82.7238 11.5326C82.8408 11.8499 83.02 12.1418 83.2516 12.3917C83.4772 12.6324 83.7506 12.8255 84.0551 12.9595C84.3894 13.1002 84.7501 13.1709 85.114 13.1672C85.4196 13.1674 85.7208 13.0962 85.9925 12.9595C86.3077 12.7918 86.5817 12.5592 86.7958 12.2777L87.8939 13.0438C87.5809 13.4785 87.153 13.8218 86.656 14.0373C86.1661 14.246 85.6372 14.3524 85.1029 14.3497C84.5582 14.3548 84.0171 14.2636 83.5056 14.0803C83.0417 13.9041 82.6176 13.6406 82.2574 13.3047C81.9058 12.9588 81.6293 12.5471 81.4444 12.0942C81.2425 11.5974 81.142 11.0667 81.1488 10.5321C81.1416 9.98714 81.242 9.44589 81.4444 8.93806C81.6258 8.47763 81.9027 8.05878 82.2574 7.7079C82.6136 7.36697 83.0388 7.10285 83.5056 6.93241C84.0156 6.74266 84.5573 6.64804 85.1029 6.65355C85.5857 6.64941 86.0644 6.74105 86.51 6.92298C86.9824 7.11921 87.3992 7.42447 87.7247 7.81258L86.6872 8.55613Z" fill="#808080"/>
<path d="M90.8984 6.83862H92.2297V9.75342H95.7277V6.83862H97.059V14.1575H95.7277V10.9311H92.2297V14.1575H90.8984V6.83862Z" fill="#808080"/>
<path d="M100.852 6.83862H105.81V8.0172H102.183V9.81358H105.617V10.9921H102.183V12.9783H105.999V14.1568H100.852V6.83862Z" fill="#808080"/>
<path fill-rule="evenodd" clip-rule="evenodd" d="M21.4731 10.5C21.4731 12.5767 20.8434 14.6068 19.6637 16.3335C18.4839 18.0602 16.8071 19.406 14.8453 20.2007C12.8834 20.9954 10.7247 21.2034 8.64197 20.7982C6.55928 20.3931 4.6462 19.3931 3.14466 17.9246C1.64313 16.4561 0.62058 14.5852 0.206307 12.5484C-0.207966 10.5116 0.00464549 8.40044 0.817271 6.48182C1.6299 4.56319 3.00603 2.9233 4.77165 1.76954C6.53727 0.615786 8.61307 1.16234e-07 10.7366 1.16234e-07C12.1466 -0.000205068 13.5428 0.271244 14.8455 0.798846C16.1482 1.32645 17.3319 2.09987 18.3289 3.07492C19.326 4.04998 20.1168 5.20757 20.6563 6.48158C21.1958 7.75559 21.4733 9.12104 21.4731 10.5ZM7.69304 14.6776H5.60867C5.34383 14.7123 5.07436 14.6856 4.82204 14.5996C4.75216 14.5552 4.69402 14.4952 4.65237 14.4246C4.61073 14.354 4.58677 14.2748 4.58245 14.1934C4.57606 14.0372 4.68227 13.856 4.8979 13.4827L10.0426 4.61503C10.2614 4.23858 10.3708 4.05035 10.5106 3.9785C10.5849 3.94202 10.667 3.92301 10.7501 3.92301C10.8333 3.92301 10.9154 3.94202 10.9897 3.9785C11.1295 4.04645 11.2389 4.23467 11.4577 4.61503L12.5167 6.41994L12.5231 6.43009C12.6962 6.68592 12.8335 6.96333 12.9312 7.25487C12.9875 7.49068 12.9875 7.73601 12.9312 7.97182C12.8327 8.26654 12.6944 8.54707 12.5199 8.80594L9.82295 13.4733L9.81657 13.4866C9.67845 13.7653 9.50191 14.0241 9.29188 14.2559C9.11132 14.4249 8.89237 14.5496 8.65299 14.6199C8.33676 14.6785 8.01423 14.6979 7.69304 14.6776ZM12.9535 14.6776H15.9403C16.2078 14.7126 16.4799 14.6837 16.7334 14.5933C16.8038 14.5488 16.8624 14.4884 16.9041 14.4172C16.9458 14.346 16.9694 14.266 16.9729 14.184C16.9793 14.038 16.8731 13.8592 16.6679 13.5093C16.6614 13.4966 16.6536 13.4845 16.6447 13.4733L15.1481 10.974L15.1313 10.9452C14.9221 10.5976 14.8159 10.4227 14.6801 10.3547C14.6059 10.3177 14.5238 10.2984 14.4405 10.2984C14.3572 10.2984 14.2751 10.3177 14.2009 10.3547C14.0652 10.4227 13.9518 10.6078 13.733 10.9795L12.2428 13.4788L12.2364 13.4881C12.0175 13.8552 11.9081 14.0403 11.9169 14.1911C11.9212 14.2729 11.9451 14.3526 11.9867 14.4237C12.0283 14.4948 12.0865 14.5553 12.1565 14.6003C12.4131 14.6833 12.6853 14.7097 12.9535 14.6776Z" fill="#808080"/>
</g>
<defs>
<clipPath id="clip0_589_105">
<rect width="106" height="21" fill="white"/>
</clipPath>
</defs>
</svg>
