<svg width="89" height="20" viewBox="0 0 89 20" fill="none" xmlns="http://www.w3.org/2000/svg">
<g clip-path="url(#clip0_589_149)">
<path d="M34.817 6.36248C35.3833 6.70058 35.8366 7.20099 36.1189 7.79975C36.4672 8.49389 36.6403 9.26369 36.6229 10.0411C36.6469 10.8116 36.4572 11.5735 36.0749 12.2414C35.7514 12.8572 35.2344 13.3478 34.6048 13.6367C33.9288 13.9826 33.179 14.1567 32.4208 14.144C31.9746 14.1456 31.5323 14.0593 31.1189 13.89C30.7056 13.7574 30.3307 13.5251 30.027 13.2133V17.6106H27.5898V6.02532H29.6897L29.8996 6.95527C30.7288 6.23283 31.785 5.82861 32.8815 5.814C33.5672 5.79343 34.2427 5.98485 34.817 6.36248ZM33.4727 11.6058C33.6817 11.4139 33.8463 11.1781 33.955 10.9151C34.0637 10.6522 34.1137 10.3684 34.1016 10.0839C34.1132 9.50552 33.9026 8.94497 33.5136 8.51918C33.3323 8.32238 33.1108 8.16752 32.8643 8.06531C32.6179 7.9631 32.3523 7.91597 32.0859 7.92718C31.6605 7.90943 31.2386 8.01197 30.8681 8.22318C30.5226 8.41662 30.2442 8.71185 30.0702 9.06924V10.9687C30.1948 11.3291 30.4303 11.6402 30.7424 11.8567C31.0945 12.0823 31.5043 12.1997 31.9216 12.1947C32.495 12.207 33.0511 11.9964 33.4743 11.6066L33.4727 11.6058Z" fill="#808080"/>
<path d="M38.0529 7.8441C38.4312 7.23134 38.9686 6.73433 39.6072 6.40683C40.3098 6.04675 41.0868 5.85831 41.8753 5.85677C42.666 5.83777 43.4479 6.0274 44.1433 6.40683C44.78 6.75919 45.3085 7.28055 45.6714 7.91421C46.0343 8.54787 46.2176 9.26957 46.2015 10.0008C46.2206 10.7432 46.0312 11.4759 45.6551 12.1148C45.3071 12.7473 44.7811 13.2622 44.1433 13.5948C43.4425 13.9597 42.6643 14.1484 41.8753 14.1449C41.0902 14.1573 40.3132 13.9835 39.6072 13.6375C38.9599 13.3229 38.4192 12.8229 38.0529 12.2003C37.6951 11.5314 37.5078 10.7835 37.5078 10.0238C37.5078 9.26403 37.6951 8.51618 38.0529 7.84727V7.8441ZM40.5309 11.5228C40.6928 11.7212 40.8989 11.8782 41.1325 11.9811C41.3662 12.084 41.6207 12.1298 41.8753 12.1148C42.1286 12.1202 42.38 12.07 42.6122 11.9678C42.8443 11.8655 43.0516 11.7137 43.2196 11.5228C43.565 11.0936 43.7441 10.5528 43.7235 10.0008C43.7512 9.44781 43.5713 8.90455 43.2196 8.47885C43.0516 8.27416 42.8394 8.11074 42.5993 8.00102C42.3591 7.8913 42.0972 7.83818 41.8336 7.84569C41.5809 7.8443 41.3306 7.89627 41.0991 7.99824C40.8675 8.10021 40.6598 8.24991 40.4892 8.43769C40.1433 8.88314 39.9648 9.43733 39.9853 10.0024C39.9669 10.5609 40.1622 11.1051 40.5309 11.5228Z" fill="#808080"/>
<path d="M50.148 0.0213623V13.9327H47.7109V0.0213623H50.148Z" fill="#808080"/>
<path d="M60.1445 6.23669L55.1916 17.6534H52.8363L54.6846 13.5521L51.1562 6.23669H53.9283L55.944 10.8034L57.9597 6.23669H60.1445Z" fill="#808080"/>
<path d="M69.4678 6.23905V13.9343C69.4722 14.6471 69.252 15.3429 68.8389 15.9217C68.4105 16.5277 67.8314 17.0097 67.1596 17.3194C66.4373 17.661 65.6479 17.8344 64.8499 17.8267C64.2968 17.83 63.7458 17.7589 63.2115 17.6154C62.8203 17.4782 62.4411 17.3085 62.0779 17.1081C61.7055 16.8697 61.3541 16.5996 61.0275 16.3008L62.4552 14.6095C62.7631 14.9176 63.1176 15.1745 63.5055 15.3708C63.9117 15.5673 64.3568 15.6685 64.8074 15.6668C65.3613 15.681 65.9055 15.5181 66.3617 15.2015C66.5663 15.0527 66.731 14.855 66.8408 14.6262C66.9506 14.3974 67.0021 14.1447 66.9906 13.8908V12.7915C66.7209 13.208 66.3448 13.5437 65.9018 13.7634C65.3514 14.0275 64.7471 14.1579 64.1376 14.1441C63.4543 14.1519 62.7833 13.9609 62.2052 13.594C61.6098 13.2337 61.1178 12.7237 60.7775 12.114C60.4257 11.4804 60.2378 10.7679 60.2312 10.042C60.2175 9.30024 60.4065 8.56897 60.7775 7.92801C61.132 7.30379 61.6378 6.78017 62.2477 6.40605C62.8094 6.04037 63.4656 5.84908 64.1345 5.85599C64.7045 5.84792 65.272 5.93374 65.8145 6.11005C66.25 6.24203 66.6417 6.49039 66.9481 6.82868L67.2005 6.23668L69.4678 6.23905ZM66.9898 10.9751V9.07562C66.8309 8.69749 66.5497 8.38455 66.1919 8.18761C65.7947 7.9623 65.3458 7.84578 64.89 7.84966C64.3296 7.84606 63.7889 8.05778 63.3782 8.44166C63.1692 8.63363 63.0046 8.8694 62.8959 9.13236C62.7872 9.39532 62.7372 9.67908 62.7492 9.96363C62.745 10.2535 62.7985 10.5413 62.9065 10.81C63.0145 11.0787 63.1749 11.323 63.3782 11.5283C63.5739 11.7322 63.809 11.8935 64.069 12.0024C64.329 12.1113 64.6084 12.1655 64.89 12.1615C65.3143 12.1743 65.734 12.0704 66.104 11.8609C66.474 11.6514 66.7803 11.3444 66.9898 10.9727V10.9751Z" fill="#808080"/>
<path d="M71.4853 7.84332C71.8604 7.21833 72.396 6.70676 73.0356 6.36252C73.7383 6.00244 74.5153 5.814 75.3037 5.81246C76.0945 5.79346 76.8764 5.98309 77.5718 6.36252C78.2031 6.70648 78.728 7.21881 79.0891 7.84332C79.4462 8.48998 79.6342 9.21741 79.6355 9.95729C79.6546 10.6997 79.4652 11.4324 79.0891 12.0713C78.7529 12.7128 78.2237 13.2309 77.5773 13.5513C76.8764 13.9162 76.0983 14.1049 75.3092 14.1013C74.5241 14.1138 73.7471 13.94 73.0411 13.594C72.3938 13.2794 71.8532 12.7794 71.4869 12.1567C71.1002 11.4757 70.9109 10.6992 70.9405 9.91535C70.9317 9.18767 71.1201 8.47133 71.4853 7.84332ZM73.9224 11.522C74.0843 11.7204 74.2904 11.8774 74.5241 11.9803C74.7577 12.0832 75.0122 12.129 75.2668 12.114C75.5201 12.1194 75.7715 12.0692 76.0037 11.967C76.2358 11.8648 76.4431 11.7129 76.6111 11.522C76.9565 11.0928 77.1356 10.552 77.115 10C77.1427 9.44703 76.9628 8.90377 76.6111 8.47807C76.4431 8.28714 76.2358 8.1353 76.0037 8.03307C75.7715 7.93085 75.5201 7.88068 75.2668 7.88606C75.014 7.88468 74.7638 7.93664 74.5323 8.03861C74.3007 8.14058 74.093 8.29029 73.9224 8.47807C73.7364 8.68308 73.5923 8.92305 73.4985 9.18422C73.4048 9.44539 73.3632 9.72263 73.376 10C73.3963 10.552 73.5868 11.0839 73.9209 11.522H73.9224Z" fill="#808080"/>
<path d="M88.2423 6.49067C88.479 6.69424 88.6694 6.94683 88.8003 7.2312C88.9312 7.51558 88.9996 7.82504 89.0009 8.13848V13.9311H86.5206V9.07002C86.4787 8.30917 86.1008 7.92874 85.3869 7.92874C85.1115 7.92721 84.8409 8.00117 84.6041 8.14269C84.3673 8.2842 84.1732 8.48795 84.0426 8.73207C83.6896 9.34781 83.515 10.0508 83.5387 10.7613V13.9327H81.1016V6.23899H83.328L83.4978 7.46337C83.7782 6.96849 84.1855 6.55848 84.677 6.27619C85.2168 5.9785 85.8261 5.83252 86.4412 5.85355C87.0996 5.83122 87.7424 6.0586 88.2423 6.49067Z" fill="#808080"/>
<path d="M17.1786 6.10996C16.9611 5.98527 16.7151 5.9197 16.4648 5.9197C16.2145 5.9197 15.9685 5.98527 15.7509 6.10996L12.4742 8.05456L10.2478 9.32088L6.97263 11.2686C6.75511 11.3933 6.50911 11.4589 6.2588 11.4589C6.00848 11.4589 5.76248 11.3933 5.54496 11.2686L2.9404 9.74589C2.72774 9.62003 2.55055 9.44157 2.42562 9.22744C2.3007 9.0133 2.23218 8.77058 2.22656 8.52231V5.51479C2.2229 5.26428 2.28751 5.01755 2.41336 4.80141C2.53921 4.58528 2.72149 4.40799 2.9404 4.28883L5.50251 2.80881C5.72003 2.68412 5.96603 2.61855 6.21634 2.61855C6.46665 2.61855 6.71266 2.68412 6.93018 2.80881L9.49229 4.28883C9.70528 4.4149 9.88268 4.59373 10.0076 4.80832C10.1326 5.0229 10.2009 5.26611 10.2061 5.51479V7.46018L12.4325 6.14953V4.20731C12.4361 3.95693 12.3714 3.71037 12.2455 3.49439C12.1197 3.2784 11.9375 3.10124 11.7187 2.98214L6.97263 0.189896C6.75511 0.0652024 6.50911 -0.000366211 6.2588 -0.000366211C6.00848 -0.000366211 5.76248 0.0652024 5.54496 0.189896L0.713984 2.98214C0.495076 3.1013 0.312794 3.27859 0.186944 3.49473C0.0610936 3.71086 -0.0035118 3.95759 0.000147231 4.2081V9.83216C-0.00293457 10.0821 0.0619444 10.3282 0.187764 10.5437C0.313584 10.7593 0.495554 10.936 0.713984 11.055L5.5481 13.848C5.76562 13.9727 6.01163 14.0383 6.26194 14.0383C6.51225 14.0383 6.75826 13.9727 6.97578 13.848L10.2517 11.9485L12.4781 10.6379L15.7541 8.73837C15.9716 8.61368 16.2176 8.54811 16.4679 8.54811C16.7182 8.54811 16.9642 8.61368 17.1818 8.73837L19.7439 10.2184C19.9568 10.3445 20.1343 10.5233 20.2592 10.7379C20.3841 10.9525 20.4525 11.1957 20.4577 11.4443V14.4463C20.4614 14.6968 20.3967 14.9436 20.2709 15.1597C20.145 15.3758 19.9628 15.5531 19.7439 15.6723L17.1818 17.1942C16.9642 17.3189 16.7182 17.3845 16.4679 17.3845C16.2176 17.3845 15.9716 17.3189 15.7541 17.1942L13.192 15.7142C12.979 15.5882 12.8016 15.4093 12.6766 15.1947C12.5517 14.9802 12.4834 14.737 12.4781 14.4883V12.5373L10.2517 13.848V15.7934C10.2481 16.0439 10.3127 16.2906 10.4385 16.5068C10.5644 16.7229 10.7466 16.9002 10.9656 17.0193L15.7957 19.81C16.0133 19.9347 16.2593 20.0003 16.5096 20.0003C16.7599 20.0003 17.0059 19.9347 17.2234 19.81L22.0536 17.0193C22.2666 16.8933 22.444 16.7144 22.5689 16.4998C22.6939 16.2853 22.7622 16.0421 22.7674 15.7934V10.1693C22.7711 9.91881 22.7065 9.67208 22.5806 9.45594C22.4548 9.23981 22.2725 9.06252 22.0536 8.94336L17.1786 6.10996Z" fill="#808080"/>
</g>
<defs>
<clipPath id="clip0_589_149">
<rect width="89" height="20" fill="white"/>
</clipPath>
</defs>
</svg>
