<svg width="94" height="18" viewBox="0 0 94 18" fill="none" xmlns="http://www.w3.org/2000/svg">
<g clip-path="url(#clip0_589_160)">
<path d="M31.8464 9.85781H35.3872C35.6233 9.86492 35.8473 9.96601 36.0118 10.1396C36.1763 10.3132 36.2683 10.5458 36.2683 10.7878C36.2683 11.0298 36.1763 11.2622 36.0118 11.4358C35.8473 11.6095 35.6233 11.7106 35.3872 11.7177H31.1163C31.0493 11.7177 30.9846 11.7425 30.9341 11.7874L29.6449 12.9269C29.6015 12.9653 29.5706 13.0164 29.5563 13.0733C29.5419 13.1302 29.5448 13.1902 29.5646 13.2454C29.5844 13.3006 29.6201 13.3483 29.667 13.3821C29.7138 13.416 29.7697 13.4344 29.827 13.4349H35.1738L35.1743 13.4329L35.1738 13.4309L35.1749 13.428L35.1777 13.4269C35.2449 13.4325 35.313 13.4349 35.3818 13.4349C36.066 13.4637 36.7335 13.2127 37.2372 12.7372C37.7409 12.2616 38.0395 11.6005 38.0676 10.8991C38.0957 10.1978 37.8509 9.51379 37.3869 8.99751C36.9229 8.48124 36.2779 8.17501 35.5937 8.14621L35.593 8.14381L35.5937 8.14137L35.5936 8.13961L35.5928 8.13804L35.5914 8.13697L35.5898 8.13658H31.7683C31.5323 8.12947 31.3082 8.02839 31.1437 7.85477C30.9792 7.68114 30.8872 7.44869 30.8872 7.20668C30.8872 6.96467 30.9792 6.73216 31.1437 6.55854C31.3082 6.38492 31.5323 6.28383 31.7683 6.27673H36.0338C36.1045 6.27563 36.1722 6.24699 36.223 6.19662L37.4199 5.0571C37.4612 5.01769 37.49 4.96655 37.5026 4.91023C37.5152 4.8539 37.511 4.79499 37.4906 4.7411C37.4703 4.68721 37.4347 4.64081 37.3883 4.60787C37.342 4.57493 37.2871 4.55695 37.2308 4.55627H31.7698C31.085 4.55627 30.4282 4.83516 29.9439 5.33152C29.4596 5.82789 29.1875 6.5011 29.1875 7.20306C29.1875 7.90502 29.4596 8.57823 29.9439 9.07459C30.4282 9.57096 31.085 9.84979 31.7698 9.84979H31.8394L31.8464 9.85781Z" fill="#808080"/>
<path d="M52.4681 4.56433C52.4312 4.56433 52.3946 4.57183 52.3605 4.58634C52.3264 4.60085 52.2955 4.6221 52.2694 4.64889C52.2433 4.67569 52.2227 4.70751 52.2086 4.7425C52.1945 4.7775 52.1874 4.815 52.1875 4.85284V13.1465C52.1874 13.1843 52.1945 13.2218 52.2086 13.2568C52.2227 13.2918 52.2433 13.3236 52.2694 13.3504C52.2955 13.3772 52.3264 13.3985 52.3605 13.413C52.3946 13.4275 52.4312 13.4349 52.4681 13.4349H58.9517C58.99 13.4349 59.0279 13.4267 59.063 13.411C59.0981 13.3953 59.1297 13.3723 59.1557 13.3436L59.9672 12.4517C60.0045 12.4106 60.0294 12.3594 60.0388 12.3041C60.0482 12.2488 60.0416 12.1919 60.02 12.1403C59.9984 12.0888 59.9625 12.0448 59.9169 12.0137C59.8713 11.9826 59.8179 11.9658 59.7632 11.9653H54.1021C54.0653 11.9652 54.0288 11.9577 53.9948 11.9431C53.9608 11.9286 53.9299 11.9073 53.9039 11.8805C53.8779 11.8537 53.8573 11.8219 53.8433 11.787C53.8293 11.7521 53.8221 11.7146 53.8222 11.6769V4.85284C53.8222 4.77647 53.7927 4.70321 53.74 4.64914C53.6874 4.59506 53.6161 4.56454 53.5415 4.56433H52.4681Z" fill="#808080"/>
<path fill-rule="evenodd" clip-rule="evenodd" d="M42.0847 4.56433C41.6842 4.58297 41.3051 4.75461 41.0219 5.04544C40.7388 5.33628 40.5721 5.72522 40.5547 6.13571V11.7145C40.5547 11.7378 40.5547 11.7618 40.5547 11.785C40.5543 12.2085 40.7133 12.6156 40.9987 12.9218C41.284 13.228 41.6736 13.4095 42.0862 13.4285H47.9725C48.3852 13.4095 48.7748 13.228 49.0601 12.9218C49.3454 12.6156 49.5045 12.2085 49.5041 11.785C49.5041 11.761 49.5041 11.7378 49.5041 11.7145V6.14295C49.4867 5.73246 49.32 5.34352 49.0368 5.05268C48.7536 4.76185 48.3745 4.59021 47.974 4.57157H42.0894L42.0847 4.56433ZM43.1793 6.13811C42.9281 6.15054 42.6906 6.25898 42.5136 6.44203C42.3366 6.62507 42.233 6.86943 42.2231 7.12694V10.6359C42.2231 10.6504 42.2231 10.6656 42.2231 10.6808C42.2222 10.9462 42.3211 11.2018 42.4994 11.3943C42.6776 11.5868 42.9214 11.7015 43.18 11.7145H46.8718C47.1304 11.7015 47.3742 11.5868 47.5524 11.3943C47.7306 11.2018 47.8296 10.9462 47.8287 10.6808C47.8287 10.6656 47.8287 10.6512 47.8287 10.6359V7.12856C47.8188 6.87104 47.7151 6.62669 47.5381 6.44364C47.3611 6.2606 47.1237 6.15215 46.8725 6.13972H43.1816L43.1793 6.13811Z" fill="#808080"/>
<path fill-rule="evenodd" clip-rule="evenodd" d="M69.3957 13.1465C69.3953 13.2224 69.4243 13.2954 69.4764 13.3495C69.5284 13.4036 69.5991 13.4343 69.6732 13.4349H70.7733C70.8474 13.4343 70.9182 13.4036 70.9702 13.3495C71.0222 13.2954 71.0513 13.2224 71.0508 13.1465V6.28241C71.0508 6.2589 71.0508 6.23539 71.0508 6.21188C71.053 5.79052 70.8964 5.38455 70.6139 5.07843C70.3314 4.77231 69.9447 4.5896 69.5341 4.56836H63.8855H63.8175C63.6079 4.56951 63.4006 4.61299 63.2074 4.6963C63.0142 4.77961 62.8388 4.90115 62.6915 5.05392C62.5441 5.2067 62.4275 5.38772 62.3484 5.58668C62.2693 5.78565 62.2293 5.99865 62.2305 6.2135C62.2305 6.237 62.2305 6.26047 62.2305 6.28397V13.1481C62.2301 13.224 62.259 13.297 62.311 13.3511C62.3631 13.4052 62.4339 13.4359 62.508 13.4366H63.608C63.6821 13.4359 63.753 13.4052 63.805 13.3511C63.857 13.297 63.886 13.224 63.8855 13.1481V10.2922C63.8853 10.2545 63.8924 10.2172 63.9063 10.1823C63.9201 10.1474 63.9405 10.1157 63.9664 10.0889C63.9922 10.0621 64.023 10.0408 64.0568 10.0262C64.0907 10.0116 64.1271 10.0039 64.1638 10.0037H69.1189C69.1557 10.0039 69.192 10.0116 69.2259 10.0262C69.2598 10.0408 69.2906 10.0621 69.3164 10.0889C69.3422 10.1157 69.3627 10.1474 69.3766 10.1823C69.3905 10.2172 69.3975 10.2545 69.3973 10.2922L69.3957 13.1465ZM63.884 8.42509V6.99716C63.8826 6.73313 63.9834 6.47933 64.1645 6.29151C64.3456 6.10368 64.5919 5.99721 64.8495 5.99551H68.4294C68.687 5.99721 68.9334 6.10368 69.1145 6.29151C69.2955 6.47933 69.3964 6.73313 69.3949 6.99716V8.42509C69.3952 8.46277 69.3881 8.50015 69.3742 8.53504C69.3604 8.56992 69.34 8.60167 69.3141 8.62845C69.2883 8.65524 69.2575 8.67654 69.2236 8.69116C69.1898 8.70577 69.1534 8.71339 69.1167 8.7136H64.1615C64.0877 8.71255 64.0173 8.68161 63.9656 8.62757C63.9139 8.57354 63.8851 8.50076 63.8855 8.42509H63.884Z" fill="#808080"/>
<path fill-rule="evenodd" clip-rule="evenodd" d="M92.6062 13.435C92.5317 13.4348 92.4603 13.4043 92.4077 13.3502C92.3551 13.2961 92.3256 13.2229 92.3256 13.1465V10.2906C92.3257 10.2527 92.3185 10.2152 92.3044 10.1803C92.2904 10.1453 92.2696 10.1135 92.2435 10.0867C92.2174 10.0599 92.1866 10.0386 92.1525 10.0241C92.1184 10.0096 92.0817 10.0021 92.0448 10.0021H87.0343C86.9973 10.0021 86.9607 10.0096 86.9266 10.0241C86.8925 10.0386 86.8616 10.0599 86.8356 10.0867C86.8095 10.1135 86.7887 10.1453 86.7747 10.1803C86.7606 10.2152 86.7536 10.2527 86.7537 10.2906V13.1465C86.7537 13.2229 86.724 13.2961 86.6714 13.3502C86.6188 13.4043 86.5474 13.4348 86.4729 13.435H85.3628C85.2883 13.4348 85.2169 13.4043 85.1643 13.3502C85.1117 13.2961 85.082 13.2229 85.082 13.1465V6.28244C85.082 6.2592 85.082 6.23515 85.082 6.21191C85.0818 5.99608 85.1232 5.78233 85.2036 5.58285C85.284 5.38337 85.4019 5.20207 85.5506 5.0493C85.6994 4.89654 85.8761 4.7753 86.0706 4.69252C86.265 4.60973 86.4734 4.56698 86.684 4.56677H86.7527H92.4655C92.8781 4.58596 93.2676 4.76757 93.5529 5.07371C93.8382 5.37985 93.9973 5.78695 93.9971 6.2103C93.9971 6.23434 93.9971 6.25758 93.9971 6.28082V13.1449C93.9971 13.2213 93.9676 13.2945 93.915 13.3486C93.8624 13.4027 93.791 13.4331 93.7165 13.4334L92.6062 13.435ZM86.7537 6.9964V8.42434C86.7536 8.46218 86.7606 8.49968 86.7747 8.53467C86.7887 8.56967 86.8095 8.60149 86.8356 8.62829C86.8616 8.65508 86.8925 8.67633 86.9266 8.69084C86.9607 8.70535 86.9973 8.7128 87.0343 8.7128H92.0448C92.0817 8.7128 92.1184 8.70535 92.1525 8.69084C92.1866 8.67633 92.2174 8.65508 92.2435 8.62829C92.2696 8.60149 92.2904 8.56967 92.3044 8.53467C92.3185 8.49968 92.3257 8.46218 92.3256 8.42434V6.9964C92.3258 6.86501 92.3006 6.73486 92.2517 6.6134C92.2028 6.49194 92.1312 6.38152 92.0406 6.2885C91.9501 6.19548 91.8426 6.12165 91.7242 6.07125C91.6058 6.02084 91.4788 5.99486 91.3506 5.99476H87.7285C87.4701 5.99582 87.2227 6.10185 87.0406 6.28963C86.8584 6.4774 86.7563 6.73159 86.7567 6.9964H86.7537Z" fill="#808080"/>
<path d="M75.1919 4.56433C75.2323 4.56435 75.2721 4.5735 75.3087 4.59108C75.3453 4.60867 75.3779 4.63428 75.4038 4.66611L80.3353 10.692C80.3722 10.7368 80.4218 10.7687 80.4771 10.7835C80.5325 10.7984 80.5908 10.7953 80.6443 10.7747C80.6979 10.7542 80.7439 10.7173 80.7762 10.6689C80.8085 10.6205 80.8255 10.5631 80.8247 10.5045V4.85284C80.8243 4.7769 80.8532 4.70385 80.9053 4.64977C80.9573 4.5957 81.0281 4.56497 81.1022 4.56433H82.2022C82.2763 4.56497 82.3472 4.5957 82.3992 4.64977C82.4512 4.70385 82.4802 4.7769 82.4798 4.85284V13.1465C82.4802 13.2224 82.4512 13.2954 82.3992 13.3495C82.3472 13.4036 82.2763 13.4343 82.2022 13.4349H80.8348L80.831 13.4341L80.8278 13.4319L80.8255 13.4285L80.8247 13.4245C80.8254 13.4222 80.8254 13.4197 80.8247 13.4173L75.8101 7.43385C75.7729 7.38956 75.7234 7.35808 75.6681 7.34371C75.6129 7.32933 75.5546 7.33279 75.5013 7.35354C75.448 7.37429 75.4022 7.41136 75.3702 7.45972C75.3382 7.50807 75.3216 7.56532 75.3225 7.62376V13.1465C75.3229 13.2224 75.2937 13.2954 75.2417 13.3495C75.1897 13.4036 75.1188 13.4343 75.0447 13.4349H73.9379C73.8638 13.4343 73.7929 13.4036 73.7409 13.3495C73.6889 13.2954 73.6597 13.2224 73.6602 13.1465V4.85284C73.6597 4.7769 73.6889 4.70385 73.7409 4.64977C73.7929 4.5957 73.8638 4.56497 73.9379 4.56433H75.1919Z" fill="#808080"/>
<path d="M3.64257 13.7411C3.77961 13.6006 3.9655 13.5215 4.15935 13.5215H22.044C22.1165 13.5213 22.1875 13.5432 22.2479 13.5845C22.3082 13.6257 22.3552 13.6845 22.383 13.7532C22.4107 13.8219 22.4179 13.8975 22.4036 13.9704C22.3893 14.0433 22.3542 14.1102 22.3028 14.1626L18.769 17.7821C18.632 17.9226 18.4461 18.0016 18.2522 18.0017H0.366786C0.294243 18.0018 0.223271 17.98 0.162912 17.9387C0.102552 17.8975 0.0555334 17.8387 0.0277986 17.77C6.38325e-05 17.7013 -0.0071218 17.6257 0.00716063 17.5528C0.0214431 17.4799 0.0565494 17.413 0.108012 17.3606L3.64257 13.7411Z" fill="#808080"/>
<path d="M3.64257 0.217843C3.77961 0.0773203 3.9655 -0.00164629 4.15935 -0.00170785H22.044C22.1165 -0.00189103 22.1875 0.0200415 22.2479 0.0612864C22.3082 0.102531 22.3552 0.161218 22.383 0.229923C22.4107 0.298628 22.4179 0.374227 22.4036 0.447126C22.3893 0.520025 22.3542 0.586932 22.3028 0.639337L18.769 4.25891C18.6319 4.39936 18.446 4.47831 18.2522 4.47846H0.366786C0.294243 4.47865 0.223271 4.45671 0.162912 4.41547C0.102552 4.37422 0.0555334 4.31554 0.0277986 4.24683C6.38325e-05 4.17813 -0.0071218 4.10253 0.00716063 4.02963C0.0214431 3.95673 0.0565494 3.88982 0.108012 3.83742L3.64257 0.217843Z" fill="#808080"/>
<path d="M18.7682 6.93708C18.6312 6.79656 18.4453 6.71759 18.2515 6.71753H0.366786C0.294243 6.71735 0.223271 6.73928 0.162912 6.78052C0.102552 6.82177 0.0555334 6.88046 0.0277986 6.94916C6.38325e-05 7.01787 -0.0071218 7.09347 0.00716063 7.16636C0.0214431 7.23926 0.0565494 7.30617 0.108012 7.35857L3.64178 10.9782C3.77882 11.1187 3.96472 11.1976 4.15856 11.1977H22.0432C22.1158 11.1979 22.1867 11.176 22.2471 11.1347C22.3074 11.0935 22.3545 11.0348 22.3822 10.9661C22.41 10.8974 22.4171 10.8218 22.4029 10.7489C22.3886 10.676 22.3535 10.6091 22.302 10.5567L18.7682 6.93708Z" fill="#808080"/>
</g>
<defs>
<clipPath id="clip0_589_160">
<rect width="94" height="18" fill="white"/>
</clipPath>
</defs>
</svg>
